<svg width="188" height="77" viewBox="0 0 188 77" fill="none" xmlns="http://www.w3.org/2000/svg">
<path d="M0 15C0 6.71573 6.71573 0 15 0H188V62C188 70.2843 181.284 77 173 77H0V15Z" fill="#2453CD"/>
<path d="M14.7 35.6H36.2L33.4 30.7C28.4 22 19.1 16.6 9 16.6V13L33.6 13C41.6 13 49 17.6 52.5 24.9L57.7 35.7L36.2 35.7L39 40.6C44 49.3 53.3 54.7 63.4 54.7V58.3H38.8C30.8 58.3 23.4 53.7 19.9 46.4L14.7 35.6Z" fill="#4FBB5A"/>
<path d="M74.1802 28.432C72.7402 28.432 71.5562 28.016 70.6282 27.184C69.7322 26.32 69.2842 25.264 69.2842 24.016C69.2842 22.736 69.7322 21.68 70.6282 20.848C71.5562 19.984 72.7402 19.552 74.1802 19.552C75.5882 19.552 76.7402 19.984 77.6362 20.848C78.5642 21.68 79.0282 22.736 79.0282 24.016C79.0282 25.264 78.5642 26.32 77.6362 27.184C76.7402 28.016 75.5882 28.432 74.1802 28.432ZM78.2602 31.216V58H70.0522V31.216H78.2602ZM92.4164 22.48V58H84.2084V22.48H92.4164ZM106.573 22.48V58H98.3647V22.48H106.573ZM124.713 58.384C122.089 58.384 119.721 57.824 117.609 56.704C115.529 55.584 113.881 53.984 112.665 51.904C111.481 49.824 110.889 47.392 110.889 44.608C110.889 41.856 111.497 39.44 112.713 37.36C113.929 35.248 115.593 33.632 117.705 32.512C119.817 31.392 122.185 30.832 124.809 30.832C127.433 30.832 129.801 31.392 131.913 32.512C134.025 33.632 135.689 35.248 136.905 37.36C138.121 39.44 138.729 41.856 138.729 44.608C138.729 47.36 138.105 49.792 136.857 51.904C135.641 53.984 133.961 55.584 131.817 56.704C129.705 57.824 127.337 58.384 124.713 58.384ZM124.713 51.28C126.281 51.28 127.609 50.704 128.697 49.552C129.817 48.4 130.377 46.752 130.377 44.608C130.377 42.464 129.833 40.816 128.745 39.664C127.689 38.512 126.377 37.936 124.809 37.936C123.209 37.936 121.881 38.512 120.825 39.664C119.769 40.784 119.241 42.432 119.241 44.608C119.241 46.752 119.753 48.4 120.777 49.552C121.833 50.704 123.145 51.28 124.713 51.28Z" fill="white"/>
<path d="M145.219 58.288C144.139 58.288 143.251 57.976 142.555 57.352C141.883 56.704 141.547 55.912 141.547 54.976C141.547 54.016 141.883 53.212 142.555 52.564C143.251 51.916 144.139 51.592 145.219 51.592C146.275 51.592 147.139 51.916 147.811 52.564C148.507 53.212 148.855 54.016 148.855 54.976C148.855 55.912 148.507 56.704 147.811 57.352C147.139 57.976 146.275 58.288 145.219 58.288ZM155.56 35.824C154.48 35.824 153.592 35.512 152.896 34.888C152.224 34.24 151.888 33.448 151.888 32.512C151.888 31.552 152.224 30.76 152.896 30.136C153.592 29.488 154.48 29.164 155.56 29.164C156.616 29.164 157.48 29.488 158.152 30.136C158.848 30.76 159.196 31.552 159.196 32.512C159.196 33.448 158.848 34.24 158.152 34.888C157.48 35.512 156.616 35.824 155.56 35.824ZM158.656 60.592C158.656 63.064 158.032 64.84 156.784 65.92C155.536 67.024 153.796 67.576 151.564 67.576H149.152V62.356H150.628C151.3 62.356 151.78 62.224 152.068 61.96C152.356 61.696 152.5 61.264 152.5 60.664V37.912H158.656V60.592ZM171.254 58.288C169.502 58.288 167.942 57.988 166.574 57.388C165.206 56.788 164.126 55.972 163.334 54.94C162.542 53.884 162.098 52.708 162.002 51.412H168.086C168.158 52.108 168.482 52.672 169.058 53.104C169.634 53.536 170.342 53.752 171.182 53.752C171.95 53.752 172.538 53.608 172.946 53.32C173.378 53.008 173.594 52.612 173.594 52.132C173.594 51.556 173.294 51.136 172.694 50.872C172.094 50.584 171.122 50.272 169.778 49.936C168.338 49.6 167.138 49.252 166.178 48.892C165.218 48.508 164.39 47.92 163.694 47.128C162.998 46.312 162.65 45.22 162.65 43.852C162.65 42.7 162.962 41.656 163.586 40.72C164.234 39.76 165.17 39.004 166.394 38.452C167.642 37.9 169.118 37.624 170.822 37.624C173.342 37.624 175.322 38.248 176.762 39.496C178.226 40.744 179.066 42.4 179.282 44.464H173.594C173.498 43.768 173.186 43.216 172.658 42.808C172.154 42.4 171.482 42.196 170.642 42.196C169.922 42.196 169.37 42.34 168.986 42.628C168.602 42.892 168.41 43.264 168.41 43.744C168.41 44.32 168.71 44.752 169.31 45.04C169.934 45.328 170.894 45.616 172.19 45.904C173.678 46.288 174.89 46.672 175.826 47.056C176.762 47.416 177.578 48.016 178.274 48.856C178.994 49.672 179.366 50.776 179.39 52.168C179.39 53.344 179.054 54.4 178.382 55.336C177.734 56.248 176.786 56.968 175.538 57.496C174.314 58.024 172.886 58.288 171.254 58.288Z" fill="#4FBB5A"/>
</svg>
